PathFileType	4	(X/Y/Z)	C:/Users/beibeiliu/ov580/test_trc/User1\sequence.23_training_dense_right.trc
DataRate	CameraRate	NumFrames	NumMarkers	Units	OrigDataRate	OrigDataStartFrame	OrigNumFrames
120	120	20	19	mm	120	181	240
Frame#	Time	ThumbCMC			ThumbMCP			ThumbIP			ThumbTip			IndexMCP			IndexPIP			IndexTip			MiddleMCP			MiddlePIP			MiddleTip			RingMCP			RingPIP			RingTip			PinkyMCP			PinkyPIP			PinkyTip			BackHand1			BackHand2			BackHand3	
		X0	Y0	Z0	X1	Y1	Z1	X2	Y2	Z2	X3	Y3	Z3	X4	Y4	Z4	X5	Y5	Z5	X6	Y6	Z6	X7	Y7	Z7	X8	Y8	Z8	X9	Y9	Z9	X10	Y10	Z10	X11	Y11	Z11	X12	Y12	Z12	X13	Y13	Z13	X14	Y14	Z14	X15	Y15	Z15	X16	Y16	Z16	X17	Y17	Z17	X18	Y18	Z18	
180	1.5	137.994	37.0171	60.9544	107.594	34.6951	31.7324	96.6255	16.1635	7.89112	83.2206	-9.5978	-2.03632	146.437	10.5817	-10.854	111.684	15.7847	-13.131	112.075	27.2754	20.0354	138.854	-15.1744	-11.7361	108.28	-2.4045	-12.5227	113.801	7.72812	25.6231	127.559	-30.2888	0.605	95.679	-14.6146	5.56916	103.608	-2.36096	32.7653	126.247	-53.2607	24.0322	114.825	-61.2035	5.9473	104.769	-70.6431	-13.9738	158.502	-31.1679	55.0174	159.027	-21.2376	94.1359	170.154	7.90946	66.7012	
181	1.50833	140.454	38.5611	59.1544	110.61	35.6656	29.1183	97.5448	20.8721	9.4653	86.7939	-6.2729	0.652974	148.359	14.0315	-12.1182	114.956	19.5872	-13.7232	115.172	27.6672	18.4961	143.237	-17.1809	-10.2735	110.637	-3.66225	-16.2233	112.293	13.6602	20.4943	126.866	-33.7987	2.16601	97.5193	-14.8742	4.49301	108.061	1.13023	31.1229	124.304	-54.6747	22.0354	115.415	-59.2911	3.88745	111.523	-68.7888	-14.2848	159.727	-25.0799	57.8565	160.226	-19.321	90.5349	168.944	7.57105	66.7096	
182	1.51667	142.996	42.7537	60.4773	114.449	39.2698	31.5721	101.742	20.0089	3.71836	91.0701	-7.45968	-1.05035	148.44	15.3849	-15.4314	116.581	19.5755	-15.0844	117.533	27.1707	18.0001	147.117	-14.7129	-10.6857	114.337	-7.2919	-21.6527	105.069	16.5901	13.0176	130.87	-29.0119	1.08556	98.6296	-12.5692	3.23618	109.782	-2.93568	34.2743	127.06	-53.3629	20.2594	118.698	-57.3477	2.61621	116.181	-66.9896	-15.7236	161.549	-26.4462	54.4294	158.607	-20.558	92.6661	173.717	9.71705	65.9036	
183	1.525	145.188	40.0217	64.5345	124.919	38.7943	28.0227	117.022	20.0704	4.21574	106.616	-6.73458	-4.65125	152.426	12.1392	-10.9594	120.535	21.8036	-18.0274	119.703	33.3092	14.8756	144.143	-14.8361	-10.0901	110.725	-4.09933	-23.0078	90.7374	13.8916	5.94848	127.773	-28.5971	-2.16449	100.031	-10.1128	4.46074	111.324	-1.08838	33.2003	128.195	-52.2906	24.4714	121.081	-59.145	4.6761	118.959	-67.5807	-20.4832	162.047	-26.1034	56.1089	160.208	-19.0902	93.1653	173.732	10.9416	64.7648	
184	1.53333	148.126	42.8586	61.298	129.535	37.9969	26.9205	120.935	19.1416	3.23069	111.925	-4.98452	-3.51365	153.823	16.3971	-13.8617	121.568	23.1816	-17.1849	122.631	32.157	16.0363	146.237	-13.0464	-12.8296	116.36	-5.14309	-23.7079	92.5498	16.5856	4.27042	132.188	-26.5213	0.223088	104.015	-7.6876	1.02131	113.155	-0.783266	33.4851	132.521	-48.2159	22.7492	123.776	-60.8343	5.70213	121.912	-70.3568	-15.4032	161.914	-22.7641	56.6088	162.935	-15.5813	89.5265	173.334	11.2931	65.8837	
185	1.54167	148.145	42.7463	60.9835	121.293	43.3431	27.4314	111.832	24.2972	5.21298	100.17	-1.81384	-4.50875	156.313	17.7594	-15.1077	126.865	24.7946	-19.1062	127.774	33.0859	19.973	153.751	-10.2257	-16.8508	121.133	-0.503073	-22.7957	112.352	16.1931	8.37221	132.179	-25.6301	-3.95208	106.85	-10.681	-2.19807	115.036	5.29714	29.0676	135.638	-46.9634	21.8183	128.186	-58.6997	1.84296	126.229	-69.9784	-14.8477	163.944	-23.1465	53.7875	160.354	-15.9043	92.999	176.262	12.5801	67.4002	
186	1.55	150.2	43.2599	60.414	122.77	41.9215	25.2965	112.737	23.7079	1.46625	99.9297	-0.94221	-7.55695	162.219	19.4685	-12.5276	129.946	28.0337	-16.5015	130.214	33.6798	18.8522	156.771	-9.26236	-13.8631	125.764	4.07001	-22.6741	124.747	18.7375	18.4814	135.871	-26.9693	-4.56803	110.664	-8.67217	-3.30126	116.452	6.55896	26.7325	135.806	-52.0068	19.6232	132.841	-56.2749	0.762076	134.602	-69.3327	-16.1816	165.468	-22.5973	56.0848	163.016	-18.1959	91.2448	180.319	10.3364	62.5874	
187	1.55833	151.385	43.2165	60.4513	126.266	38.4432	24.6317	113.37	26.4816	1.18258	101.342	-0.442697	-10.3934	165.041	15.9471	-12.1032	131.313	28.7362	-16.2086	130.925	31.1415	18.9453	156.991	-8.87588	-12.7216	125.955	9.22965	-15.0705	131.793	16.0786	22.9987	141.067	-25.5492	-5.85612	116.005	-7.45673	-6.60636	119.175	6.01383	27.8219	139.821	-53.0626	17.8676	135.941	-62.0966	1.18389	140.718	-75.173	-17.0112	167.725	-26.2964	57.8811	165.426	-17.6528	88.6896	180.872	10.7339	63.2819	
188	1.56667	152.155	42.0378	59.913	126.069	42.1638	23.3853	117.894	22.5823	-1.83579	105.46	-2.78035	-11.3431	166.824	17.7655	-14.4068	133.751	23.3325	-15.3405	133.097	28.3138	18.3796	158.441	-8.32589	-15.11	126.764	1.13289	-14.2338	135.539	13.2138	25.8851	146.772	-26.1313	-4.36312	117.124	-11.7992	-6.13569	118.948	1.75727	27.372	147.459	-49.9582	19.6176	144.68	-61.3649	0.798187	149.874	-76.0548	-17.2191	168.868	-24.5737	59.3508	168.439	-16.3278	88.2452	181.074	8.64694	68.7022	
189	1.575	152.338	44.4851	54.7125	128.29	38.521	19.604	118.476	20.8905	-6.00255	110.563	-7.36302	-10.4949	169.769	16.437	-11.5482	135.79	22.9929	-17.2853	134.443	30.1757	15.2768	160.975	-9.40586	-14.2252	127.887	5.54509	-12.0563	134.461	13.7321	24.5222	148.355	-27.6537	-6.09159	120.887	-11.6843	-6.42756	119.32	-2.30518	25.7779	149.646	-52.9991	23.7022	149.916	-61.6687	0.993147	154.648	-75.1445	-12.959	172.886	-25.4658	59.3501	169.345	-14.1604	90.8852	182.415	13.7571	66.0932	
190	1.58333	150.357	44.1354	58.561	128.446	35.9143	20.3092	119.388	19.9751	-2.78161	113.565	-11.5449	-11.3076	170.353	16.4904	-13.659	137.878	18.6786	-19.0295	134.755	27.4711	16.5092	165.245	-11.3877	-10.2589	129.442	-1.35806	-10.6721	136.971	8.81294	26.9258	151.677	-29.2448	-4.64475	123.76	-16.6688	-6.06041	121.554	-2.31061	27.8725	157.109	-50.0711	23.5855	155.427	-62.2073	5.1204	160.875	-76.6791	-9.37101	175.535	-24.9326	57.7201	170.291	-12.2997	93.6666	183.769	16.7809	66.0921	
191	1.59167	149.915	40.0501	54.791	126.669	32.7308	25.3517	119.27	15.5185	-5.39894	112.748	-11.4044	-12.2859	168.436	11.8786	-14.6207	138.176	13.6071	-19.1022	131.241	24.4813	12.3902	163.899	-13.695	-13.0637	132.148	-6.69091	-12.4592	136.112	8.15559	25.0404	157.869	-33.3296	0.0120158	126.536	-20.2189	-5.04838	122.864	-4.23537	25.2157	161.359	-55.2373	23.7751	159.728	-65.4288	8.06916	170.741	-75.9392	-10.5326	181.745	-19.4725	59.3251	173.118	-9.81725	92.3956	183.028	14.0835	64.2374	
192	1.6	146.169	40.9711	55.6328	121.51	31.2828	21.8201	120.788	10.8944	-1.8495	114.829	-15.8063	-11.5045	168.971	17.5471	-13.5229	139.491	8.29408	-19.6813	130.851	20.8615	15.7956	167.377	-13.3795	-12.0728	133.781	-7.44091	-11.8987	134.804	6.73986	24.7815	159.879	-31.122	-3.06447	128.701	-27.3711	-4.02834	123.892	-6.44871	26.164	168.831	-51.1854	20.9322	168.51	-64.2359	6.84233	177.192	-76.5068	-5.16613	182.525	-18.0913	59.3955	176.957	-8.33262	89.5035	182.135	20.6251	68.6657	
193	1.60833	139.941	37.1972	59.7493	119.312	23.6177	21.0027	114.304	8.43175	1.41195	116.354	-21.8727	-11.5381	167.105	18.2859	-11.6145	136.327	7.78152	-20.8196	127.314	18.1935	14.3981	167.124	-9.22729	-12.9324	135.828	-11.3227	-14.9483	132.913	1.84452	22.5383	167.266	-32.0522	0.966965	132.02	-27.4716	-4.56634	124.139	-12.7435	26.6484	174.335	-53.1705	26.3483	177.235	-65.3936	6.38517	187.219	-76.7046	-8.78308	188.266	-17.4541	57.159	179.284	-9.47958	93.8913	179.208	22.629	68.4433	
194	1.61667	133.035	36.6354	57.8451	113.093	19.7949	22.8234	112.528	2.14156	-1.38991	117.594	-25.5316	-9.29403	160.383	15.5205	-15.504	130.618	3.86257	-19.0451	125.159	7.80998	15.216	166.408	-10.6123	-14.5859	133.847	-18.2693	-11.2181	132.082	-3.81708	25.0056	167.968	-30.6147	-1.39455	135.852	-35.2626	-3.90658	125.25	-23.3302	25.48	182.345	-47.2729	20.0083	183.533	-60.5224	9.43493	194.582	-66.9154	-10.2662	187.422	-10.528	54.8043	181.805	-3.97065	90.6221	176.841	26.7761	63.9686	
195	1.625	129.973	30.7968	56.9849	112.131	11.9077	24.1347	111.247	-4.49165	3.11138	121.969	-29.9278	-6.1705	153.525	16.2053	-15.6515	125.987	0.634343	-18.9437	119.346	9.13119	17.1012	163.373	-5.56642	-15.1744	132.217	-18.7837	-11.2579	132.448	-10.2736	25.5533	168.819	-30.8402	-2.43031	138.51	-38.2023	-4.26355	127.084	-25.825	26.4889	187.801	-45.1137	20.1763	190.408	-57.3694	8.16578	203.212	-62.0483	-15.2758	184.826	-3.71691	56.0786	180.154	-1.60334	88.9855	170.689	26.8227	64.8065	
196	1.63333	123.001	25.6206	59.3004	108.482	4.79749	25.5761	110.453	-11.8591	4.22849	120.823	-36.9388	-8.70844	146.705	16.5783	-17.0571	123.192	-3.964	-17.9006	115.413	1.47943	16.8309	159.741	-7.20631	-15.7077	130.959	-23.5862	-9.53114	133.508	-8.87941	28.8537	169.166	-25.4994	-4.39173	138.995	-41.8048	-2.8111	129.685	-31.3175	28.2404	189.358	-37.8045	18.7083	196.097	-53.0886	1.63505	209.098	-57.8675	-11.2816	189.256	-3.58812	53.3556	179.375	-0.400268	90.7848	166.098	26.9711	63.1777	
197	1.64167	117.358	20.3609	62.0364	103.444	-1.44095	25.3305	107.161	-17.2542	2.2895	120.369	-39.7247	-5.58694	140.5	15.4072	-14.3802	118.192	-10.2321	-15.019	115.762	-7.61573	17.5748	156.874	-2.91833	-13.5226	130.405	-25.5094	-12.3023	133.111	-12.0485	29.4022	166.637	-23.0881	-4.83484	138.882	-43.3511	-0.601471	128.924	-32.2444	27.0993	192.421	-36.596	20.8704	198.266	-46.6135	0.0979048	208.73	-49.1009	-17.2681	183.693	0.711078	50.8987	175.39	5.14832	89.3654	159.123	31.6731	62.5107	
198	1.65	113.699	14.9941	63.5219	100.248	-7.48615	33.7424	104.458	-22.5044	5.93605	121.576	-45.7799	-9.50933	132.304	16.5257	-12.7809	115.781	-15.1111	-14.4751	109.196	-9.45055	21.2668	154.12	-6.77203	-14.3744	125.784	-27.4587	-9.52705	127.883	-15.5547	28.706	166.441	-23.1551	-3.81239	138.019	-44.0654	-0.730012	129.88	-34.4952	26.7823	192.587	-30.1717	16.1172	199.544	-40.3731	-1.46919	210.829	-40.5107	-16.6218	179.88	4.67746	52.2231	175.418	9.66515	83.7653	153.99	28.435	64.0125	
199	1.65833	110.213	9.86806	61.9571	96.8496	-15.036	30.1139	105.517	-28.1862	6.08553	121.98	-46.695	-6.04519	125.538	9.61506	-13.9086	109.616	-16.5052	-16.4046	108.823	-17.797	19.4912	147.311	-4.95401	-16.0028	126.221	-30.0002	-11.4077	129.7	-18.9774	29.1282	163.894	-20.5605	-5.50733	138.144	-42.8641	-2.37198	133.546	-36.1819	31.3802	191.632	-23.7143	16.6051	199.58	-30.5701	-4.28258	209.733	-29.3671	-21.7557	178.562	8.26731	48.1778	172.639	10.8381	86.0158	144.254	32.4389	63.5487	
